<svg width="43" height="43" viewBox="0 0 43 43" fill="none" xmlns="http://www.w3.org/2000/svg">
<path d="M31.7377 8.89395L42.051 19.2072C42.6557 19.8119 43 20.6434 43 21.5C43 22.3566 42.6557 23.1881 42.051 23.7928L31.7377 34.1061C31.2002 34.6436 30.4779 34.9375 29.7221 34.9375C28.1516 34.9375 26.875 33.6609 26.875 32.0904V26.875H16.125C14.6385 26.875 13.4375 25.674 13.4375 24.1875V18.8125C13.4375 17.326 14.6385 16.125 16.125 16.125H26.875V10.9096C26.875 9.33906 28.1516 8.0625 29.7221 8.0625C30.4779 8.0625 31.2002 8.36484 31.7377 8.89395ZM13.4375 8.0625H8.0625C6.57598 8.0625 5.375 9.26348 5.375 10.75V32.25C5.375 33.7365 6.57598 34.9375 8.0625 34.9375H13.4375C14.924 34.9375 16.125 36.1385 16.125 37.625C16.125 39.1115 14.924 40.3125 13.4375 40.3125H8.0625C3.61133 40.3125 0 36.7012 0 32.25V10.75C0 6.29883 3.61133 2.6875 8.0625 2.6875H13.4375C14.924 2.6875 16.125 3.88848 16.125 5.375C16.125 6.86152 14.924 8.0625 13.4375 8.0625Z" fill="#7B2E34"/>
</svg>
