<svg width="60" height="60" viewBox="0 0 60 60" fill="none" xmlns="http://www.w3.org/2000/svg">
<path d="M59.8337 19.5273C60.2315 20.547 59.8958 21.6839 59.0379 22.4106L53.6543 27.0287C53.7911 28.0016 53.8657 28.9979 53.8657 30.0059C53.8657 31.0139 53.7911 32.0102 53.6543 32.983L59.0379 37.6011C59.8958 38.3278 60.2315 39.4647 59.8337 40.4845C59.2866 41.8793 58.6276 43.2155 57.8692 44.5048L57.2849 45.4542C56.4643 46.7435 55.5442 47.9625 54.5371 49.1112C53.8035 49.9551 52.5851 50.2364 51.4909 49.9082L44.5656 47.8336C42.8995 49.0408 41.0594 50.0488 39.095 50.8107L37.5408 57.5034C37.2921 58.57 36.4218 59.4139 35.2779 59.5898C33.5621 59.8593 31.7966 60 29.9938 60C28.191 60 26.4254 59.8593 24.7096 59.5898C23.5658 59.4139 22.6954 58.57 22.4468 57.5034L20.8926 50.8107C18.9282 50.0488 17.088 49.0408 15.422 47.8336L8.50906 49.9199C7.41493 50.2481 6.19647 49.9551 5.46291 49.1229C4.45581 47.9742 3.53575 46.7552 2.71515 45.4659L2.13079 44.5165C1.37236 43.2272 0.713392 41.891 0.166327 40.4962C-0.231538 39.4765 0.104161 38.3395 0.962058 37.6128L6.34567 32.9947C6.2089 32.0102 6.13431 31.0139 6.13431 30.0059C6.13431 28.9979 6.2089 28.0016 6.34567 27.0287L0.962058 22.4106C0.104161 21.6839 -0.231538 20.547 0.166327 19.5273C0.713392 18.1324 1.37236 16.7963 2.13079 15.5069L2.71515 14.5575C3.53575 13.2682 4.45581 12.0492 5.46291 10.9006C6.19647 10.0567 7.41493 9.77535 8.50906 10.1035L15.4344 12.1782C17.1005 10.9709 18.9406 9.96288 20.9051 9.20102L22.4592 2.5083C22.7079 1.44169 23.5782 0.597773 24.7221 0.421957C26.4379 0.140652 28.2034 0 30.0062 0C31.809 0 33.5746 0.140652 35.2904 0.410236C36.4342 0.586052 37.3046 1.42997 37.5532 2.49658L39.1074 9.1893C41.0718 9.95116 42.912 10.9592 44.578 12.1664L51.5034 10.0918C52.5975 9.76363 53.816 10.0567 54.5495 10.8888C55.5566 12.0375 56.4767 13.2565 57.2973 14.5458L57.8817 15.4952C58.6401 16.7845 59.299 18.1207 59.8461 19.5155L59.8337 19.5273ZM30.0062 39.3827C32.6442 39.3827 35.1742 38.3948 37.0395 36.6363C38.9049 34.8778 39.9528 32.4928 39.9528 30.0059C39.9528 27.519 38.9049 25.1339 37.0395 23.3754C35.1742 21.6169 32.6442 20.629 30.0062 20.629C27.3682 20.629 24.8382 21.6169 22.9729 23.3754C21.1075 25.1339 20.0596 27.519 20.0596 30.0059C20.0596 32.4928 21.1075 34.8778 22.9729 36.6363C24.8382 38.3948 27.3682 39.3827 30.0062 39.3827Z" fill="white"/>
</svg>
