<svg width="38" height="39" viewBox="0 0 38 39" fill="none" xmlns="http://www.w3.org/2000/svg">
<path d="M37 8.00001C38.4446 6.55537 37.3496 3.52812 35.905 2.08348C34.4603 0.638849 32.1142 0.638849 30.6696 2.08348L18.5 13.2646L7 1.5C5.55536 0.0553649 2.52811 0.650405 1.08348 2.09504C-0.361159 3.53968 -0.361159 5.88576 1.08348 7.3304L12.2646 19.5L1.08348 30.5C-0.361159 31.9446 -0.349603 35.4719 1.09503 36.9165C2.53967 38.3612 5.55536 38.3612 7 36.9165L18.5 25.7354L30.6696 37.5C32.1142 38.9446 34.4719 38.3496 35.9165 36.905C37.3612 35.4603 37.9446 32.4446 36.5 31L24.7354 19.5L37 8.00001Z" fill="white" fill-opacity="0.8"/>
</svg>
